<svg width="531" height="93" viewBox="0 0 531 93" fill="none" xmlns="http://www.w3.org/2000/svg">
<path d="M443 17.5298C443 12.9188 444.364 8.87091 447.092 5.38614C448.771 3.25289 450.751 1.53701 453.034 0.238501L453.407 0.894378C451.296 2.59038 449.787 4.24002 448.882 5.84327C447.295 8.63903 446.502 12.3623 446.502 17.0131C446.502 20.4581 446.804 23.3002 447.407 25.5395C448.469 29.4615 450.469 32.3964 453.407 34.3441L452.896 35C451.283 34.2182 449.538 32.6879 447.663 30.4089C444.554 26.6326 443 22.3396 443 17.5298Z" fill="white"/>
<path d="M455.021 27.0102C456.503 26.8512 457.46 26.5862 457.893 26.2152C458.339 25.831 458.562 24.8703 458.562 23.3333V5.22714C458.562 3.78289 458.345 2.84213 457.913 2.40488C457.48 1.95438 456.516 1.67613 455.021 1.57013V0.814878H466.412V1.57013C464.93 1.64963 463.933 1.89476 463.421 2.30551C462.923 2.71626 462.674 3.59739 462.674 4.94889V24.506C462.674 24.9565 462.746 25.3142 462.89 25.5792C463.047 25.831 463.382 25.99 463.893 26.0562C464.195 26.096 464.51 26.1225 464.838 26.1357C465.179 26.149 465.808 26.1556 466.726 26.1556C470.307 26.1556 472.727 25.8575 473.986 25.2612C475.245 24.665 476.465 23.1412 477.645 20.6899H478.668L476.701 27.7456H455.021V27.0102Z" fill="white"/>
<path d="M482.505 2.08688C482.505 1.51713 482.701 1.02688 483.095 0.616127C483.488 0.205376 483.974 0 484.551 0C485.115 0 485.593 0.205376 485.987 0.616127C486.393 1.01363 486.597 1.50388 486.597 2.08688C486.597 2.65663 486.393 3.14689 485.987 3.55764C485.593 3.95514 485.115 4.15389 484.551 4.15389C483.974 4.15389 483.488 3.95514 483.095 3.55764C482.701 3.14689 482.505 2.65663 482.505 2.08688ZM479.986 27.1891C481.39 27.0566 482.275 26.8181 482.642 26.4736C483.01 26.1158 483.193 25.1618 483.193 23.6116V14.1312C483.193 13.2699 483.134 12.6737 483.016 12.3424C482.819 11.7992 482.406 11.5275 481.777 11.5275C481.632 11.5275 481.488 11.5408 481.344 11.5673C481.213 11.5938 480.819 11.6998 480.163 11.8853V11.2692L481.009 10.9909C483.305 10.2357 484.905 9.66591 485.81 9.28166C486.177 9.12266 486.413 9.04316 486.518 9.04316C486.544 9.13591 486.557 9.23528 486.557 9.34128V23.6116C486.557 25.1221 486.734 26.0695 487.089 26.4537C487.456 26.838 488.276 27.0831 489.548 27.1891V27.7456H479.986V27.1891Z" fill="white"/>
<path d="M502.395 0.814878V1.57013C500.847 1.67613 499.844 1.94113 499.385 2.36513C498.925 2.77588 498.696 3.72989 498.696 5.22714V18.2453C498.696 20.3786 498.985 22.0415 499.562 23.234C500.637 25.407 502.677 26.4935 505.68 26.4935C508.972 26.4935 511.182 25.3805 512.31 23.1545C512.94 21.909 513.254 19.9877 513.254 17.3907V6.79727C513.254 4.58452 512.992 3.19989 512.467 2.64338C511.943 2.07363 510.946 1.71588 509.477 1.57013V0.814878H518.802V1.57013C517.242 1.74238 516.219 2.12663 515.733 2.72288C515.261 3.30589 515.025 4.66402 515.025 6.79727V17.3907C515.025 20.1997 514.599 22.3926 513.746 23.9693C512.172 26.8711 509.182 28.322 504.775 28.322C500.421 28.322 497.457 26.891 495.883 24.029C495.03 22.492 494.604 20.4647 494.604 17.9472V5.22714C494.604 3.74314 494.374 2.79576 493.915 2.38501C493.469 1.96101 492.486 1.68938 490.964 1.57013V0.814878H502.395Z" fill="white"/>
<path d="M531 17.7286C531 19.7028 530.744 21.5711 530.233 23.3333C529.721 25.0956 528.974 26.7585 527.99 28.322C526.954 29.9915 525.57 31.5484 523.839 32.9926C522.698 33.9466 521.74 34.6157 520.966 35L520.593 34.3441C522.612 32.7939 524.088 31.2105 525.019 29.594C526.672 26.732 527.498 22.9491 527.498 18.2453C527.498 14.4426 527.118 11.3354 526.357 8.92391C525.295 5.51864 523.373 2.84213 520.593 0.894378L521.104 0.238501C523.176 1.40451 525.104 3.16676 526.888 5.52527C529.629 9.15578 531 13.2235 531 17.7286Z" fill="white"/>
<path d="M27.5929 1.17578L0 72.7996H13.539L21.0442 52.2307H46.9448L54.8916 72.7996H69.1663L39.8074 1.17578H27.5929ZM25.0176 41.2117L31.5663 23.7281C32.3757 21.5243 33.1115 19.247 33.7738 16.9698C34.5832 19.3205 35.5397 21.9651 36.6434 24.83L42.8242 41.1382H25.0176V41.2117Z" fill="white"/>
<path d="M86.0153 1.17578H73.3594V72.7996H86.0153V1.17578Z" fill="white"/>
<path d="M166.808 33.4979C163.939 32.1756 158.862 30.7064 151.356 29.0168C142.232 26.9599 139.436 25.3438 138.627 24.6092C137.229 23.3604 136.567 21.8912 136.567 19.9812C136.567 17.7039 137.597 15.8674 139.583 14.1778C141.717 12.4882 145.323 11.6067 150.326 11.6067C155.109 11.6067 158.714 12.5617 160.995 14.4717C163.276 16.3816 164.601 19.1732 165.042 22.9931L165.263 24.7561L177.478 23.8746L177.404 22.1116C177.257 17.7774 176.006 13.884 173.725 10.4314C171.444 6.97872 168.206 4.33416 164.012 2.57111C159.965 0.881524 155.183 0 149.958 0C145.176 0 140.687 0.808055 136.787 2.42418C132.74 4.11377 129.576 6.61143 127.369 9.91714C125.235 13.2229 124.131 16.7489 124.131 20.5689C124.131 24.0215 125.014 27.1803 126.78 30.0453C128.546 32.8368 131.195 35.1875 134.727 37.024C137.376 38.4197 141.864 39.889 148.34 41.4316C154.447 42.9008 158.494 44.0028 160.26 44.6639C162.761 45.6189 164.601 46.7942 165.558 48.1165C166.514 49.3653 167.029 50.8346 167.029 52.5976C167.029 54.2872 166.514 55.9033 165.484 57.3725C164.38 58.8417 162.688 60.0171 160.407 60.8986C157.979 61.8536 155.183 62.2944 151.945 62.2944C148.34 62.2944 145.102 61.6332 142.232 60.4579C139.51 59.2825 137.45 57.7398 136.199 55.8298C134.874 53.9199 134.065 51.3488 133.697 48.2634L133.476 46.5004L121.482 47.5288L121.556 49.2919C121.703 54.1403 123.028 58.6213 125.603 62.4413C128.178 66.3347 131.71 69.2731 136.199 71.1831C140.54 73.093 146.059 74.048 152.387 74.048C157.464 74.048 162.173 73.093 166.293 71.1831C170.487 69.2731 173.725 66.5551 176.006 63.029C178.287 59.5763 179.391 55.7564 179.391 51.7895C179.391 47.8227 178.361 44.2231 176.227 41.0643C174.24 38.0524 171.076 35.4813 166.808 33.4979Z" fill="white"/>
<path d="M208.897 18.8047C202.348 18.8047 196.756 20.7881 192.194 24.755C186.749 29.4564 183.953 36.8025 183.953 46.4258C183.953 55.1675 186.308 62.0728 190.87 66.7743C195.432 71.5492 201.539 73.9734 208.971 73.9734C213.533 73.9734 217.874 72.8715 221.774 70.7412C225.747 68.5373 228.764 65.452 230.824 61.5586C232.885 57.6652 233.915 52.3761 233.915 45.7646C233.915 37.4636 231.56 30.8522 226.924 26.0772C222.215 21.2289 216.182 18.8047 208.897 18.8047ZM221.553 46.0585C221.553 52.0087 220.302 56.4898 217.874 59.2813C215.446 62.0728 212.503 63.3951 208.897 63.3951C205.218 63.3951 202.275 62.0728 199.847 59.2813C197.419 56.4898 196.168 52.1557 196.168 46.3523C196.168 40.5489 197.419 36.2148 199.847 33.4233C202.275 30.7052 205.218 29.3829 208.897 29.3829C212.503 29.3829 215.446 30.7053 217.874 33.4968C220.302 36.2148 221.553 40.4755 221.553 46.0585Z" fill="white"/>
<path d="M272.104 52.6692C271.589 56.4156 270.338 59.1337 268.498 60.8233C266.659 62.5129 264.378 63.3209 261.508 63.3209C257.976 63.3209 255.18 62.0721 252.973 59.501C250.765 56.8564 249.588 52.3753 249.588 46.2781C249.588 40.2543 250.765 35.8467 253.12 33.2022C255.401 30.5576 258.344 29.3088 262.023 29.3088C264.378 29.3088 266.291 29.9699 267.983 31.3657C269.602 32.7614 270.78 34.9652 271.515 37.8302L271.883 39.5198L283.583 37.6833L283.215 35.8468C282.185 30.4842 279.756 26.2234 276.004 23.2116C272.251 20.2732 267.468 18.7305 261.729 18.7305C257.167 18.7305 252.899 19.8324 249.073 21.9627C245.1 24.1666 242.156 27.4723 240.243 31.8064C238.404 35.9937 237.447 40.989 237.447 46.4985C237.447 55.1668 239.655 61.9252 244.07 66.7001C248.484 71.475 254.445 73.8992 261.729 73.8992C267.542 73.8992 272.545 72.1361 276.592 68.6835C280.639 65.2309 283.141 60.3825 284.098 54.2853L284.392 52.4488L272.472 50.9061L272.104 52.6692Z" fill="white"/>
<path d="M299.626 19.9062H287.559V72.7977H299.626V19.9062Z" fill="white"/>
<path d="M299.626 1.17578H287.559V14.4721H299.626V1.17578Z" fill="white"/>
<path d="M342.445 54.5064C341.341 57.6652 339.796 59.9424 337.956 61.3382C336.117 62.7339 333.909 63.3951 331.187 63.3951C327.581 63.3951 324.638 62.1463 322.21 59.6486C320.076 57.4448 318.825 54.3595 318.31 50.3191H354.88L354.954 48.5561C354.954 47.5277 355.027 46.793 355.027 46.2788C355.027 37.684 352.746 30.9256 348.258 26.0772C343.769 21.2289 337.809 18.8047 330.745 18.8047C323.461 18.8047 317.354 21.3023 312.792 26.2242C308.23 31.146 305.875 38.0513 305.875 46.7931C305.875 55.241 308.156 61.9259 312.718 66.7008C317.28 71.4758 323.534 73.8999 331.187 73.8999C337.294 73.8999 342.445 72.3573 346.418 69.3454C350.392 66.3335 353.188 62.0728 354.659 56.6368L355.248 54.5799L343.033 53.1107L342.445 54.5064ZM318.825 39.8143C319.34 36.8759 320.518 34.5252 322.431 32.6887C324.712 30.4849 327.434 29.3829 330.819 29.3829C334.498 29.3829 337.441 30.7787 339.796 33.5702C340.973 35.0394 341.856 37.0963 342.298 39.8878H318.825V39.8143Z" fill="white"/>
<path d="M420.589 19.9097L409.625 49.8081C409.037 51.4977 408.448 53.1872 407.86 54.9503C407.271 53.1138 406.682 51.3507 406.02 49.6611L395.351 19.9097H383.431H382.4H375.042V1.32422L363.049 8.52334V19.9097H356.941V30.0472H363.049V56.5664C363.049 61.929 363.417 65.3082 364.226 67.1447C365.035 69.0546 366.507 70.5973 368.494 71.7727C370.48 72.8746 373.056 73.4623 376.44 73.4623C378.427 73.4623 380.635 73.1684 383.136 72.6542L384.829 72.2869L383.063 61.4148L381.297 61.6352C379.899 61.8555 378.721 61.929 377.912 61.929C376.735 61.929 376.22 61.7086 375.999 61.5617C375.631 61.3413 375.41 61.1209 375.263 60.7536C375.263 60.6802 374.969 59.9456 374.969 56.8602V30.0472H383.357V22.7012L401.679 71.0381C401.458 71.6258 401.311 72.14 401.164 72.4338C399.692 76.5476 399.03 77.8699 398.809 78.2372C398.294 79.1187 397.558 79.7799 396.749 80.2206C395.939 80.6614 394.688 80.8818 393.217 80.8818C392.04 80.8818 390.568 80.6614 388.949 80.2206L386.3 79.486L387.698 91.1662L388.802 91.5335C390.936 92.2681 392.996 92.6354 394.762 92.6354C397.779 92.6354 400.428 91.9008 402.635 90.4316C404.769 88.9624 406.682 86.7586 408.301 83.7467C409.478 81.6163 411.024 77.8699 413.084 72.3604L432.804 19.8362H420.589V19.9097Z" fill="white"/>
</svg>
