<svg width="656" height="188" viewBox="0 0 656 188" fill="none" xmlns="http://www.w3.org/2000/svg">
<path d="M30.6588 86.3066L0 165.889H15.0433L23.3825 143.034H52.1609L60.9906 165.889H76.8514L44.2305 86.3066H30.6588ZM27.7973 130.791L35.0737 111.365C35.973 108.916 36.7906 106.386 37.5264 103.856C38.4257 106.467 39.4885 109.406 40.7149 112.589L47.5825 130.709H27.7973V130.791Z" fill="white"/>
<path d="M95.5724 86.3066H81.5103V165.889H95.5724V86.3066Z" fill="white"/>
<path d="M185.344 122.22C182.155 120.751 176.514 119.118 168.175 117.241C158.037 114.955 154.93 113.16 154.031 112.344C152.477 110.956 151.742 109.324 151.742 107.201C151.742 104.671 152.886 102.63 155.094 100.753C157.465 98.8758 161.471 97.8964 167.03 97.8964C172.344 97.8964 176.35 98.9574 178.885 101.08C181.419 103.202 182.891 106.304 183.381 110.548L183.627 112.507L197.198 111.527L197.117 109.568C196.953 104.753 195.563 100.427 193.029 96.5904C190.494 92.7541 186.897 89.8157 182.237 87.8568C177.74 85.9795 172.426 85 166.621 85C161.307 85 156.32 85.8978 151.987 87.6935C147.49 89.5709 143.975 92.346 141.522 96.019C139.151 99.6921 137.925 103.61 137.925 107.854C137.925 111.691 138.906 115.2 140.868 118.384C142.83 121.485 145.773 124.097 149.698 126.138C152.641 127.689 157.628 129.321 164.823 131.035C171.609 132.668 176.105 133.892 178.067 134.627C180.847 135.688 182.891 136.994 183.954 138.463C185.017 139.85 185.589 141.483 185.589 143.442C185.589 145.319 185.017 147.115 183.872 148.747C182.646 150.38 180.765 151.686 178.231 152.665C175.533 153.726 172.426 154.216 168.829 154.216C164.823 154.216 161.225 153.481 158.037 152.175C155.012 150.869 152.723 149.155 151.333 147.033C149.861 144.911 148.962 142.054 148.553 138.626L148.308 136.667L134.981 137.81L135.063 139.769C135.227 145.156 136.698 150.135 139.56 154.379C142.421 158.705 146.346 161.97 151.333 164.092C156.156 166.214 162.288 167.276 169.319 167.276C174.961 167.276 180.193 166.214 184.771 164.092C189.431 161.97 193.029 158.95 195.563 155.032C198.098 151.196 199.324 146.952 199.324 142.544C199.324 138.136 198.179 134.137 195.809 130.627C193.601 127.28 190.086 124.424 185.344 122.22Z" fill="white"/>
<path d="M232.107 105.896C224.831 105.896 218.617 108.099 213.548 112.507C207.498 117.731 204.392 125.893 204.392 136.586C204.392 146.299 207.008 153.971 212.077 159.195C217.146 164.501 223.932 167.194 232.189 167.194C237.258 167.194 242.081 165.97 246.415 163.603C250.829 161.154 254.182 157.726 256.471 153.4C258.76 149.074 259.904 143.197 259.904 135.851C259.904 126.628 257.288 119.282 252.138 113.976C246.905 108.589 240.201 105.896 232.107 105.896ZM246.169 136.177C246.169 142.789 244.78 147.768 242.082 150.87C239.384 153.971 236.113 155.44 232.107 155.44C228.019 155.44 224.749 153.971 222.051 150.87C219.353 147.768 217.963 142.952 217.963 136.504C217.963 130.056 219.353 125.24 222.051 122.138C224.749 119.118 228.019 117.649 232.107 117.649C236.113 117.649 239.384 119.118 242.082 122.22C244.78 125.24 246.169 129.974 246.169 136.177Z" fill="white"/>
<path d="M302.337 143.523C301.764 147.686 300.374 150.706 298.33 152.583C296.287 154.461 293.752 155.358 290.564 155.358C286.639 155.358 283.532 153.971 281.08 151.114C278.627 148.176 277.319 143.197 277.319 136.422C277.319 129.729 278.627 124.832 281.243 121.893C283.778 118.955 287.048 117.567 291.136 117.567C293.752 117.567 295.878 118.302 297.758 119.853C299.557 121.403 300.865 123.852 301.683 127.035L302.091 128.913L315.091 126.872L314.682 124.832C313.537 118.873 310.839 114.139 306.67 110.792C302.5 107.528 297.186 105.813 290.809 105.813C285.74 105.813 280.998 107.038 276.747 109.405C272.332 111.854 269.062 115.527 266.936 120.342C264.892 124.995 263.829 130.545 263.829 136.667C263.829 146.298 266.282 153.808 271.187 159.113C276.093 164.419 282.715 167.112 290.809 167.112C297.268 167.112 302.827 165.153 307.324 161.317C311.82 157.481 314.6 152.094 315.663 145.319L315.99 143.278L302.745 141.564L302.337 143.523Z" fill="white"/>
<path d="M332.917 107.119H319.509V165.887H332.917V107.119Z" fill="white"/>
<path d="M332.917 86.3066H319.509V101.08H332.917V86.3066Z" fill="white"/>
<path d="M380.494 145.564C379.268 149.074 377.551 151.604 375.507 153.155C373.463 154.706 371.01 155.44 367.985 155.44C363.979 155.44 360.709 154.053 358.011 151.278C355.64 148.829 354.25 145.401 353.678 140.912H394.311L394.393 138.953C394.393 137.81 394.474 136.994 394.474 136.422C394.474 126.872 391.94 119.363 386.953 113.976C381.966 108.589 375.343 105.896 367.495 105.896C359.401 105.896 352.615 108.671 347.546 114.139C342.477 119.608 339.861 127.281 339.861 136.994C339.861 146.38 342.395 153.808 347.464 159.113C352.533 164.419 359.483 167.112 367.985 167.112C374.771 167.112 380.494 165.398 384.909 162.052C389.324 158.705 392.431 153.971 394.066 147.931L394.72 145.646L381.148 144.013L380.494 145.564ZM354.25 129.24C354.822 125.975 356.13 123.363 358.256 121.322C360.791 118.873 363.816 117.649 367.576 117.649C371.664 117.649 374.935 119.2 377.551 122.302C378.859 123.934 379.84 126.22 380.33 129.321H354.25V129.24Z" fill="white"/>
<path d="M467.322 107.119L455.14 140.34C454.486 142.217 453.832 144.094 453.178 146.053C452.524 144.013 451.87 142.054 451.134 140.176L439.279 107.119H426.035H424.89H416.714V86.4688L403.388 94.4678V107.119H396.602V118.383H403.388V147.849C403.388 153.807 403.797 157.562 404.696 159.603C405.595 161.725 407.23 163.439 409.438 164.745C411.645 165.969 414.507 166.622 418.268 166.622C420.475 166.622 422.928 166.296 425.707 165.724L427.588 165.316L425.626 153.236L423.664 153.481C422.11 153.726 420.802 153.807 419.903 153.807C418.595 153.807 418.022 153.563 417.777 153.399C417.368 153.154 417.123 152.91 416.96 152.501C416.96 152.42 416.632 151.604 416.632 148.175V118.383H425.953V110.221L446.31 163.929C446.065 164.582 445.901 165.153 445.738 165.479C444.103 170.05 443.367 171.519 443.122 171.928C442.549 172.907 441.732 173.642 440.832 174.131C439.933 174.621 438.543 174.866 436.908 174.866C435.6 174.866 433.965 174.621 432.166 174.131L429.223 173.315L430.776 186.293L432.003 186.701C434.374 187.518 436.663 187.926 438.625 187.926C441.977 187.926 444.92 187.109 447.373 185.477C449.744 183.845 451.87 181.396 453.668 178.049C454.976 175.682 456.693 171.519 458.982 165.398L480.893 107.038H467.322V107.119Z" fill="white"/>
<path d="M577.523 27.4922C585.394 27.4922 593.264 27.4922 601.373 27.4922C601.379 29.7394 601.386 31.9866 601.393 34.3019C601.397 35.7243 601.402 37.1467 601.407 38.5691C601.41 39.3163 601.412 40.0635 601.415 40.8107C601.415 40.9044 601.416 40.998 601.416 41.0945C601.421 42.6049 601.426 44.1153 601.43 45.6257C601.434 47.1766 601.439 48.7275 601.445 50.2785C601.448 51.1492 601.451 52.02 601.453 52.8908C601.455 53.7108 601.458 54.5307 601.462 55.3507C601.463 55.6513 601.464 55.9518 601.464 56.2524C601.464 56.6637 601.466 57.075 601.469 57.4863C601.469 57.6634 601.469 57.6634 601.468 57.8441C601.479 59.0951 601.622 60.4575 602.487 61.4305C603.255 62.0806 604.343 62.2017 605.32 62.1308C606.115 61.982 606.687 61.6406 607.26 61.0688C607.854 60.1502 607.96 59.2128 607.954 58.1411C607.955 58.0094 607.956 57.8777 607.957 57.7419C607.96 57.3033 607.959 56.8647 607.959 56.4261C607.96 56.1106 607.962 55.795 607.963 55.4795C607.967 54.6248 607.968 53.7702 607.969 52.9155C607.97 52.1122 607.973 51.3089 607.976 50.5057C607.982 48.9153 607.986 47.325 607.988 45.7346C607.991 44.1903 607.995 42.646 608 41.1017C608 41.0055 608 40.9092 608.001 40.81C608.003 39.9726 608.006 39.1352 608.008 38.2977C608.02 34.6959 608.027 31.094 608.035 27.4922C615.905 27.4922 623.775 27.4922 631.884 27.4922C631.9 34.5138 631.9 34.5138 631.904 37.4739C631.906 39.5114 631.909 41.549 631.914 43.5865C631.918 45.0709 631.921 46.5554 631.922 48.0398C631.922 48.8244 631.923 49.609 631.926 50.3936C631.949 56.7142 631.949 56.7142 631.484 59.5C631.455 59.6832 631.427 59.8664 631.398 60.0496C631.333 60.4418 631.259 60.8295 631.176 61.2183C631.148 61.3541 631.12 61.4899 631.091 61.6298C629.659 68.2825 625.918 74.1409 620.187 77.9056C617.53 79.6078 614.694 80.7334 611.607 81.3892C611.485 81.4151 611.364 81.4409 611.239 81.4676C609.084 81.8957 606.937 81.9956 604.745 81.9868C604.616 81.9865 604.487 81.9862 604.354 81.9859C602.448 81.9792 600.582 81.9313 598.708 81.5469C598.509 81.5073 598.509 81.5073 598.307 81.4669C593.679 80.5189 589.49 78.5622 586.051 75.3047C585.868 75.1489 585.685 74.9938 585.501 74.8398C581.188 71.0823 578.938 65.2031 578.023 59.7158C578.003 59.5971 577.983 59.4784 577.962 59.3562C577.894 58.9182 577.841 58.4792 577.79 58.0391C577.779 57.9445 577.768 57.85 577.756 57.7526C577.427 54.8061 577.489 51.8441 577.496 48.8843C577.498 48.1301 577.498 47.3759 577.499 46.6216C577.499 45.1989 577.502 43.7761 577.504 42.3534C577.508 40.427 577.509 38.5006 577.511 36.5742C577.513 33.5468 577.519 30.5195 577.523 27.4922Z" fill="#FEFEFE"/>
<path d="M495.982 3.71875C503.897 3.71875 511.811 3.71875 519.965 3.71875C519.965 29.0514 519.965 54.3841 519.965 80.4844C512.051 80.4844 504.137 80.4844 495.982 80.4844C495.982 55.1517 495.982 29.8191 495.982 3.71875Z" fill="white"/>
<path d="M525.561 27.4922C533.431 27.4922 541.302 27.4922 549.41 27.4922C549.41 44.9796 549.41 62.467 549.41 80.4844C541.54 80.4844 533.67 80.4844 525.561 80.4844C525.561 62.997 525.561 45.5095 525.561 27.4922Z" fill="#FEFEFE"/>
<path d="M573.527 60.2972C573.639 60.3968 573.752 60.4964 573.868 60.5991C576.137 62.7263 577.574 65.8361 577.689 68.9409C577.764 72.8029 576.639 76.0699 573.926 78.8909C571.091 81.6025 567.783 82.4414 563.955 82.384C560.631 82.2793 557.73 80.683 555.451 78.3161C553.127 75.6664 552.032 72.3621 552.238 68.8625C552.518 65.3241 554.157 62.1412 556.858 59.8282C561.81 55.904 568.82 56.1099 573.527 60.2972Z" fill="#FEFEFE"/>
</svg>
