<svg width="746" height="570" viewBox="0 0 746 570" fill="none" xmlns="http://www.w3.org/2000/svg">
<path d="M24.4294 544.933L55.8855 542.087L83.8249 539.119L108.283 536.079L130.991 532.774L151.95 529.24L169.428 525.829L185.156 522.33L200.866 518.301L214.845 514.201L227.074 510.119L237.553 506.178L248.033 501.742L256.763 497.607L265.51 492.977L274.24 487.799L281.221 483.169L288.219 478.027L295.199 472.301L302.18 465.868L307.428 460.514L312.659 454.594L317.908 448.073L323.156 440.81L328.387 432.681L333.636 423.526L338.867 413.135L344.115 401.224L347.597 392.3L351.096 382.404L354.595 371.394L358.094 359.059L361.575 345.169L365.074 329.388L368.573 311.31L372.055 290.386L375.554 268.013L379.053 248.592L382.534 231.715L386.033 216.924L389.532 203.847L393.031 192.201L396.513 181.774L401.761 168.026L406.992 156.115L412.241 145.724L417.472 136.57L422.72 128.44L427.969 121.177L433.2 114.656L438.448 108.754L445.429 101.703L452.409 95.4646L459.407 89.8979L466.388 84.8968L475.118 79.3125L483.865 74.3643L492.595 69.9463L503.075 65.2279L513.554 61.0397L525.783 56.7277L538.012 52.9282L551.991 49.0934L567.701 45.3116L585.179 41.6535L604.388 38.1722L625.347 34.8852L648.073 31.8103L674.263 28.7707L703.969 25.8372L721.429 24.3174" stroke="white" stroke-width="39" stroke-linecap="round" stroke-linejoin="round"/>
<path d="M24.4294 544.933L50.637 540.886L75.095 536.609L96.0539 532.492L115.281 528.268L134.49 523.532L151.95 518.708L167.678 513.883L181.657 509.129L195.635 503.863L207.864 498.756L220.076 493.136L230.573 487.835L241.052 482.021L251.532 475.606L260.262 469.756L268.992 463.341L277.739 456.308L286.469 448.55L293.45 441.746L300.448 434.342L307.428 426.23L314.409 417.341L321.407 407.516L328.387 396.63L333.636 387.652L338.867 377.897L344.115 367.206L349.346 355.49L354.595 342.571L359.826 328.239L365.074 312.299L370.323 294.415L379.053 262.694L384.284 246.118L389.532 231.291L394.763 217.931L400.012 205.826L405.243 194.816L410.491 184.761L415.74 175.518L422.72 164.35L429.701 154.277L436.699 145.158L443.679 136.87L450.677 129.306L457.658 122.361L466.388 114.444L475.118 107.269L483.865 100.749L492.595 94.7754L503.075 88.2544L513.554 82.352L524.034 76.9621L536.263 71.2541L548.492 66.0938L562.47 60.7569L576.449 55.9325L592.159 51.055L607.887 46.637L625.347 42.2191L644.574 37.8718L665.533 33.6305L688.241 29.5306L712.699 25.6251L721.429 24.3174" stroke="white" stroke-width="17" stroke-linecap="round" stroke-linejoin="round"/>
<path d="M24.4294 544.933L47.1379 539.773L68.1145 534.524L87.324 529.293L106.533 523.55L124.011 517.842L141.471 511.603L157.199 505.471L171.177 499.551L185.156 493.119L199.117 486.138L211.346 479.494L223.575 472.283L234.054 465.621L244.534 458.429L255.013 450.653L265.51 442.241L274.24 434.677L282.97 426.531L291.7 417.748L300.448 408.258L309.178 397.973L316.158 389.084L323.156 379.559L330.137 369.309L337.117 358.264L344.115 346.318L351.096 333.347L358.094 319.227L365.074 303.799L372.055 286.852L379.053 269.551L386.033 253.752L393.031 239.332L400.012 226.078L406.992 213.884L413.99 202.627L420.971 192.183L427.969 182.481L436.699 171.277L445.429 160.992L454.159 151.502L462.906 142.719L471.636 134.573L480.366 127.009L490.846 118.597L501.325 110.822L511.805 103.629L522.284 96.9667L534.513 89.7566L546.742 83.1119L560.721 76.1315L574.699 69.6989L588.678 63.7788L604.388 57.6467L620.116 52.0093L637.576 46.2483L656.803 40.4695L676.012 35.1856L696.971 29.9017L719.68 24.7062L721.429 24.3174" stroke="white" stroke-width="24" stroke-linecap="round" stroke-linejoin="round"/>
<path d="M24.4294 544.933L45.4061 538.376L66.365 531.308L85.5745 524.345L104.784 516.852L122.261 509.518L139.721 501.636L155.449 494.02L171.177 485.873L185.156 478.115L199.117 469.827L213.095 460.956L225.324 452.65L237.553 443.814L249.782 434.359L262.011 424.251L272.491 415.009L282.97 405.165L293.45 394.651L303.929 383.429L314.409 371.412L323.156 360.72L331.886 349.34L340.616 337.234L349.346 324.316L358.094 310.479L366.824 295.652L387.783 258.771L396.513 244.934L405.243 232.016L413.99 219.91L422.72 208.53L431.45 197.838L441.93 185.821L452.409 174.6L462.906 164.085L473.386 154.241L483.865 144.999L496.094 134.891L508.323 125.436L520.552 116.6L532.764 108.294L546.742 99.4231L560.721 91.135L574.699 83.377L590.427 75.2302L606.137 67.6136L623.615 59.7319L641.075 52.3981L658.553 45.5591L677.762 38.5433L698.721 31.4392L719.68 24.8475L721.429 24.3174" stroke="white" stroke-width="39" stroke-linecap="round" stroke-linejoin="round"/>
<path d="M24.4294 544.933L45.4061 536.256L66.365 527.066L85.5745 518.177L104.784 508.758L124.011 498.791L141.471 489.213L158.948 479.105L176.408 468.395L192.136 458.216L207.864 447.49L223.575 436.144L237.553 425.506L251.532 414.302L265.51 402.497L279.471 390.038L293.45 376.855L305.679 364.679L317.908 351.849L330.137 338.33L342.366 324.069L354.595 308.977L365.074 295.317L394.763 255.873L406.992 241.028L419.221 226.979L431.45 213.672L443.679 201.037L455.908 189.038L469.887 176.031L483.865 163.731L497.826 152.085L511.805 141.041L527.533 129.253L543.261 118.12L558.971 107.57L574.699 97.5676L592.159 87.0528L609.637 77.1035L627.097 67.6843L646.324 57.8764L665.533 48.5986L686.492 39.0558L707.451 30.0431L721.429 24.3174" stroke="white" stroke-opacity="0.1" stroke-width="4.29885" stroke-linecap="round" stroke-linejoin="round"/>
</svg>
