<svg width="695" height="524" viewBox="0 0 695 524" fill="none" xmlns="http://www.w3.org/2000/svg">
<path d="M8.49023 514.824L39.0842 512.056L66.2572 509.169L90.0452 506.213L112.131 502.999L132.515 499.561L149.514 496.244L164.81 492.841L180.09 488.922L193.686 484.935L205.579 480.964L215.771 477.131L225.964 472.817L234.454 468.795L242.962 464.292L251.453 459.256L258.242 454.753L265.048 449.752L271.837 444.183L278.626 437.927L283.731 432.719L288.818 426.961L293.923 420.619L299.028 413.555L304.115 405.649L309.22 396.746L314.308 386.639L319.412 375.055L322.798 366.375L326.201 356.75L329.604 346.042L333.008 334.046L336.394 320.536L339.797 305.188L343.2 287.605L346.586 267.255L349.989 245.496L353.392 226.606L356.778 210.192L360.181 195.806L363.584 183.088L366.987 171.761L370.373 161.621L375.478 148.249L380.565 136.664L385.67 126.558L390.758 117.655L395.862 109.749L400.967 102.685L406.054 96.3425L411.159 90.6025L417.948 83.7445L424.737 77.6775L431.544 72.2635L438.333 67.3995L446.823 61.9675L455.331 57.1555L463.822 52.8585L474.014 48.2695L484.206 44.1965L496.1 40.0025L507.994 36.3075L521.589 32.5775L536.869 28.8995L553.867 25.3415L572.55 21.9555L592.934 18.7585L615.038 15.7675L640.509 12.8115L669.402 9.95847L686.383 8.48047" stroke="white" stroke-width="13" stroke-linecap="square" stroke-linejoin="round"/>
<path d="M8.49023 514.824L33.9792 510.888L57.7672 506.728L78.1512 502.724L96.8512 498.616L115.534 494.01L132.515 489.317L147.812 484.625L161.407 480.002L175.003 474.88L186.896 469.913L198.773 464.447L208.982 459.291L219.175 453.636L229.367 447.397L237.857 441.708L246.348 435.469L254.856 428.628L263.347 421.083L270.136 414.466L276.942 407.264L283.731 399.375L290.52 390.73L297.326 381.174L304.115 370.586L309.22 361.855L314.308 352.367L319.412 341.969L324.5 330.574L329.604 318.01L334.692 304.071L339.797 288.567L344.901 271.174L353.392 240.322L358.479 224.2L363.584 209.78L368.672 196.786L373.776 185.013L378.864 174.305L383.969 164.525L389.073 155.536L395.862 144.674L402.651 134.877L409.458 126.008L416.247 117.947L423.053 110.591L429.842 103.836L438.333 96.1365L446.823 89.1585L455.331 82.8165L463.822 77.0075L474.014 70.6645L484.206 64.9245L494.398 59.6825L506.292 54.1305L518.186 49.1115L531.781 43.9215L545.377 39.2285L560.656 34.4855L575.953 30.1885L592.934 25.8915L611.634 21.6635L632.019 17.5385L654.105 13.5505L677.892 9.75247L686.383 8.48047" stroke="white" stroke-opacity="0.75" stroke-width="13" stroke-linecap="square" stroke-linejoin="round"/>
<path d="M8.49023 514.824L30.5762 509.805L50.9782 504.7L69.6602 499.613L88.3432 494.027L105.342 488.475L122.323 482.408L137.62 476.444L151.215 470.686L164.81 464.43L178.389 457.641L190.282 451.178L202.176 444.166L212.368 437.686L222.561 430.691L232.753 423.128L242.962 414.947L251.453 407.591L259.943 399.667L268.434 391.125L276.942 381.895L285.433 371.892L292.222 363.247L299.028 353.983L305.817 344.014L312.606 333.272L319.412 321.653L326.201 309.038L333.008 295.305L339.797 280.3L346.586 263.817L353.392 246.991L360.181 231.625L366.987 217.6L373.776 204.71L380.565 192.85L387.372 181.902L394.161 171.744L400.967 162.308L409.458 151.411L417.948 141.408L426.439 132.178L434.947 123.636L443.437 115.713L451.928 108.357L462.12 100.175L472.312 92.6135L482.505 85.6175L492.697 79.1385L504.591 72.1255L516.484 65.6635L530.08 58.8745L543.675 52.6175L557.27 46.8605L572.55 40.8965L587.847 35.4135L604.828 29.8105L623.528 24.1895L642.211 19.0505L662.595 13.9115L684.681 8.85846L686.383 8.48047" stroke="white" stroke-opacity="0.5" stroke-width="13" stroke-linecap="square" stroke-linejoin="round"/>
<path d="M8.49023 514.824L28.8922 508.447L49.2762 501.572L67.9592 494.8L86.6422 487.513L103.64 480.38L120.621 472.714L135.918 465.306L151.215 457.383L164.81 449.838L178.389 441.777L191.984 433.149L203.878 425.07L215.771 416.477L227.665 407.281L239.559 397.45L249.751 388.461L259.943 378.888L270.136 368.661L280.328 357.747L290.52 346.06L299.028 335.661L307.518 324.592L316.009 312.819L324.5 300.255L333.008 286.797L341.498 272.377L361.883 236.506L370.373 223.049L378.864 210.485L387.372 198.711L395.862 187.642L404.353 177.244L414.545 165.557L424.737 154.642L434.947 144.416L445.139 134.842L455.331 125.853L467.225 116.022L479.119 106.827L491.012 98.2335L502.889 90.1555L516.484 81.5275L530.08 73.4665L543.675 65.9215L558.972 57.9975L574.252 50.5895L591.25 42.9245L608.231 35.7915L625.23 29.1395L643.913 22.3165L664.297 15.4075L684.681 8.99646L686.383 8.48047" stroke="white" stroke-opacity="0.25" stroke-width="13" stroke-linecap="square" stroke-linejoin="round"/>
<path d="M8.49023 514.824L28.8922 506.384L49.2762 497.447L67.9592 488.802L86.6422 479.641L105.342 469.947L122.323 460.631L139.321 450.8L156.303 440.384L171.6 430.485L186.896 420.052L202.176 409.017L215.771 398.67L229.367 387.774L242.962 376.292L256.54 364.175L270.136 351.353L282.029 339.511L293.923 327.033L305.817 313.885L317.711 300.014L329.604 285.336L339.797 272.05L368.672 233.688L380.565 219.25L392.459 205.586L404.353 192.644L416.247 180.355L428.14 168.685L441.736 156.035L455.331 144.072L468.909 132.746L482.505 122.003L497.801 110.539L513.098 99.7115L528.378 89.4505L543.675 79.7225L560.656 69.4965L577.655 59.8195L594.636 50.6585L613.336 41.1195L632.019 32.0965L652.403 22.8145L672.788 14.0495L686.383 8.48047" stroke="white" stroke-opacity="0.1" stroke-width="13" stroke-linecap="square" stroke-linejoin="round"/>
</svg>
