<?xml version="1.0" encoding="utf-8" standalone="no"?>
<!DOCTYPE svg PUBLIC "-//W3C//DTD SVG 1.1//EN"
  "http://www.w3.org/Graphics/SVG/1.1/DTD/svg11.dtd">
<svg xmlns:xlink="http://www.w3.org/1999/xlink" width="460.8pt" height="345.6pt" viewBox="0 0 460.8 345.6" xmlns="http://www.w3.org/2000/svg" version="1.1">
 <metadata>
  <rdf:RDF xmlns:dc="http://purl.org/dc/elements/1.1/" xmlns:cc="http://creativecommons.org/ns#" xmlns:rdf="http://www.w3.org/1999/02/22-rdf-syntax-ns#">
   <cc:Work>
    <dc:type rdf:resource="http://purl.org/dc/dcmitype/StillImage"/>
    <dc:date>2024-02-29T16:45:55.966639</dc:date>
    <dc:format>image/svg+xml</dc:format>
    <dc:creator>
     <cc:Agent>
      <dc:title>Matplotlib v3.7.1, https://matplotlib.org/</dc:title>
     </cc:Agent>
    </dc:creator>
   </cc:Work>
  </rdf:RDF>
 </metadata>
 <defs>
  <style type="text/css">*{stroke-linejoin: round; stroke-linecap: butt}</style>
 </defs>
 <g id="figure_1">
  <g id="patch_1">
   <path d="M 0 345.6 
L 460.8 345.6 
L 460.8 0 
L 0 0 
L 0 345.6 
z
" style="fill: none"/>
  </g>
  <g id="axes_1">
   <g id="line2d_1">
    <path d="M 73.832727 295.488 
L 88.478797 294.169635 
L 101.497526 292.788532 
L 112.888913 291.374589 
L 123.46663 289.844742 
L 133.230677 288.199449 
L 141.367382 286.615106 
L 148.690417 284.98463 
L 156.013452 283.116395 
L 162.522816 281.211184 
L 168.21851 279.313522 
L 173.100533 277.480532 
L 177.982556 275.419458 
L 182.050909 273.495273 
L 186.119262 271.348477 
L 190.187614 268.938069 
L 193.442297 266.785627 
L 196.696979 264.398706 
L 199.951661 261.736785 
L 203.206343 258.749433 
L 205.647355 256.25773 
L 208.088366 253.514498 
L 210.529378 250.479628 
L 212.97039 247.104 
L 215.411401 243.32681 
L 217.852413 239.071874 
L 220.293424 234.24243 
L 222.734436 228.713701 
L 224.361777 224.560583 
L 225.989118 219.963726 
L 227.616459 214.848 
L 229.2438 209.120299 
L 230.871141 202.663825 
L 232.498483 195.330038 
L 234.125824 186.927089 
L 235.753165 177.202791 
L 237.380506 166.807149 
L 239.007847 157.779692 
L 240.635188 149.938595 
L 242.262529 143.064416 
L 243.88987 136.98869 
L 245.517211 131.579938 
L 247.144552 126.734049 
L 249.585564 120.342299 
L 252.026576 114.81357 
L 254.467587 109.984126 
L 256.908599 105.72919 
L 259.34961 101.952 
L 261.790622 98.576372 
L 264.231634 95.541502 
L 266.672645 92.79827 
L 269.927327 89.526006 
L 273.18201 86.625391 
L 276.436692 84.036514 
L 279.691374 81.711681 
L 283.759727 79.119101 
L 287.828079 76.819675 
L 291.896432 74.766341 
L 296.778455 72.574914 
L 301.660478 70.632896 
L 307.356172 68.629167 
L 313.051866 66.860308 
L 319.56123 65.0767 
L 326.884265 63.320158 
L 335.020971 61.621675 
L 343.971347 60.002553 
L 353.735393 58.476004 
L 364.31311 57.048863 
L 376.518168 55.635692 
L 390.350567 54.273101 
L 398.487273 53.568 
L 398.487273 53.568 
" clip-path="url(#pe20b853cb2)" style="fill: none; stroke: #ffffff; stroke-width: 2; stroke-linecap: square"/>
   </g>
   <g id="line2d_2">
    <path d="M 73.832727 295.488 
L 86.037785 293.609515 
L 97.429173 291.623594 
L 107.193219 289.707083 
L 116.143595 287.743627 
L 125.093971 285.546082 
L 133.230677 283.307933 
L 140.553712 281.062385 
L 147.063076 278.850934 
L 153.57244 276.40285 
L 159.268134 274.03534 
L 164.963828 271.423265 
L 169.845851 268.959636 
L 174.727874 266.25668 
L 179.609897 263.277742 
L 183.67825 260.552626 
L 187.746603 257.574076 
L 191.814956 254.305014 
L 195.883308 250.70076 
L 199.13799 247.539892 
L 202.392673 244.096576 
L 205.647355 240.331183 
L 208.902037 236.196307 
L 212.156719 231.634757 
L 215.411401 226.576901 
L 217.852413 222.407007 
L 220.293424 217.86661 
L 222.734436 212.904031 
L 225.175448 207.457517 
L 227.616459 201.452651 
L 230.057471 194.798935 
L 232.498483 187.385197 
L 234.939494 179.073328 
L 239.007847 164.333887 
L 241.448859 156.637669 
L 243.88987 149.744147 
L 246.330882 143.533966 
L 248.771893 137.910317 
L 251.212905 132.793854 
L 253.653917 128.118923 
L 256.094928 123.830735 
L 259.34961 118.636138 
L 262.604293 113.957596 
L 265.858975 109.721848 
L 269.113657 105.868872 
L 272.368339 102.349027 
L 275.623021 99.120898 
L 279.691374 95.443436 
L 283.759727 92.111186 
L 287.828079 89.077719 
L 291.896432 86.304572 
L 296.778455 83.275549 
L 301.660478 80.529331 
L 306.542502 78.028078 
L 312.238195 75.377994 
L 317.933889 72.977703 
L 324.443254 70.497391 
L 330.952618 68.258285 
L 338.275653 65.986069 
L 345.598688 63.937928 
L 353.735393 61.8868 
L 362.685769 59.863357 
L 372.449815 57.891526 
L 383.027532 55.989062 
L 394.41892 54.168344 
L 398.487273 53.568 
L 398.487273 53.568 
" clip-path="url(#pe20b853cb2)" style="fill: none; stroke: #ffffff; stroke-opacity: 0.75; stroke-width: 2; stroke-linecap: square"/>
   </g>
   <g id="line2d_3">
    <path d="M 73.832727 295.488 
L 84.410444 293.088692 
L 94.174491 290.657758 
L 103.124867 288.220306 
L 112.075243 285.553803 
L 120.211948 282.902566 
L 128.348653 280.003682 
L 135.671688 277.153011 
L 142.181053 274.400542 
L 148.690417 271.415201 
L 155.199781 268.166128 
L 160.895475 265.078268 
L 166.591169 261.731721 
L 171.473192 258.6318 
L 176.355215 255.292062 
L 181.237239 251.683556 
L 186.119262 247.772478 
L 190.187614 244.253667 
L 194.255967 240.47051 
L 198.32432 236.392055 
L 202.392673 231.982325 
L 206.461025 227.199249 
L 209.715707 223.070999 
L 212.97039 218.642824 
L 216.225072 213.880804 
L 219.479754 208.745708 
L 222.734436 203.191905 
L 225.989118 197.16601 
L 229.2438 190.605155 
L 232.498483 183.434793 
L 235.753165 175.565852 
L 239.007847 167.519103 
L 242.262529 160.183088 
L 245.517211 153.477358 
L 248.771893 147.324031 
L 252.026576 141.657548 
L 255.281258 136.422331 
L 258.53594 131.570949 
L 261.790622 127.062684 
L 265.858975 121.856751 
L 269.927327 117.073675 
L 273.99568 112.663945 
L 278.064033 108.58549 
L 282.132386 104.802333 
L 286.200738 101.283522 
L 291.082761 97.372444 
L 295.964785 93.763938 
L 300.846808 90.4242 
L 305.728831 87.324279 
L 311.424525 83.977732 
L 317.120219 80.889872 
L 323.629583 77.640799 
L 330.138947 74.655458 
L 336.648312 71.902989 
L 343.971347 69.052318 
L 351.294381 66.431628 
L 359.431087 63.757085 
L 368.381463 61.068173 
L 377.331839 58.611143 
L 387.095885 56.161544 
L 397.673602 53.744656 
L 398.487273 53.568 
L 398.487273 53.568 
" clip-path="url(#pe20b853cb2)" style="fill: none; stroke: #ffffff; stroke-opacity: 0.5; stroke-width: 2; stroke-linecap: square"/>
   </g>
   <g id="line2d_4">
    <path d="M 73.832727 295.488 
L 83.596774 292.442899 
L 93.36082 289.162395 
L 102.311196 285.924301 
L 111.261572 282.439243 
L 119.398278 279.032074 
L 127.534983 275.37107 
L 134.858018 271.83488 
L 142.181053 268.044547 
L 148.690417 264.43913 
L 155.199781 260.587668 
L 161.709146 256.464084 
L 167.404839 252.609329 
L 173.100533 248.500562 
L 178.796227 244.111818 
L 184.491921 239.413472 
L 189.373944 235.114292 
L 194.255967 230.538424 
L 199.13799 225.658268 
L 204.020014 220.44243 
L 208.902037 214.85504 
L 212.97039 209.885538 
L 217.038742 204.602417 
L 221.107095 198.975019 
L 225.175448 192.968559 
L 229.2438 186.543401 
L 233.312153 179.654186 
L 243.0762 162.512599 
L 247.144552 156.087441 
L 251.212905 150.080981 
L 255.281258 144.453583 
L 259.34961 139.170462 
L 263.417963 134.20096 
L 268.299986 128.61357 
L 273.18201 123.397732 
L 278.064033 118.517576 
L 282.946056 113.941708 
L 287.828079 109.642528 
L 293.523773 104.944182 
L 299.219467 100.555438 
L 304.915161 96.446671 
L 310.610854 92.591916 
L 317.120219 88.468332 
L 323.629583 84.61687 
L 330.138947 81.011453 
L 337.461982 77.22112 
L 344.785017 73.68493 
L 352.921722 70.023926 
L 361.058428 66.616757 
L 369.195133 63.437907 
L 378.145509 60.178464 
L 387.909556 56.877121 
L 397.673602 53.813387 
L 398.487273 53.568 
L 398.487273 53.568 
" clip-path="url(#pe20b853cb2)" style="fill: none; stroke: #ffffff; stroke-opacity: 0.25; stroke-width: 2; stroke-linecap: square"/>
   </g>
   <g id="line2d_5">
    <path d="M 73.832727 295.488 
L 83.596774 291.458399 
L 93.36082 287.191907 
L 102.311196 283.05452 
L 111.261572 278.681476 
L 120.211948 274.052051 
L 128.348653 269.601511 
L 136.485359 264.900414 
L 144.622064 259.926986 
L 151.945099 255.197978 
L 159.268134 250.208856 
L 166.591169 244.937552 
L 173.100533 239.995204 
L 179.609897 234.791226 
L 186.119262 229.304279 
L 192.628626 223.510638 
L 199.13799 217.383849 
L 204.833684 211.726452 
L 210.529378 205.769325 
L 216.225072 199.488 
L 221.920766 192.855273 
L 227.616459 185.840806 
L 232.498483 179.498959 
L 246.330882 161.170202 
L 252.026576 154.268099 
L 257.722269 147.738723 
L 263.417963 141.552676 
L 269.113657 135.683572 
L 274.809351 130.107661 
L 281.318715 124.066803 
L 287.828079 118.352203 
L 294.337444 112.938123 
L 300.846808 107.801467 
L 308.169843 102.328529 
L 315.492878 97.153889 
L 322.815913 92.253807 
L 330.138947 87.606995 
L 338.275653 82.7177 
L 346.412358 78.093947 
L 354.549064 73.714675 
L 363.49944 69.157364 
L 372.449815 64.850548 
L 382.213862 60.414331 
L 391.977908 56.229072 
L 398.487273 53.568 
L 398.487273 53.568 
" clip-path="url(#pe20b853cb2)" style="fill: none; stroke: #ffffff; stroke-opacity: 0.1; stroke-width: 2; stroke-linecap: square"/>
   </g>
  </g>
 </g>
 <defs>
  <clipPath id="pe20b853cb2">
   <rect x="57.6" y="41.472" width="357.12" height="266.112"/>
  </clipPath>
 </defs>
</svg>
